<svg version="1.1" xmlns="http://www.w3.org/2000/svg" xmlns:xlink="http://www.w3.org/1999/xlink" width="400" height="400" viewBox="0 0 400 400">
  <path d="M257.798 127.704 C 252.976 128.649,250.130 131.427,245.736 139.482 C 229.818 168.658,216.381 183.608,204.280 185.605 C 194.504 187.217,182.228 176.859,170.146 156.802 L 168.885 154.709 167.077 157.171 C 161.616 164.609,152.719 170.482,143.605 172.666 C 141.914 173.071,140.461 173.471,140.377 173.555 C 140.091 173.842,149.543 187.675,152.974 191.992 C 177.293 222.586,207.888 228.452,235.742 207.862 C 248.000 198.801,265.098 177.101,273.639 159.766 C 274.222 158.584,276.612 154.171,278.950 149.960 C 285.088 138.908,285.514 140.124,273.102 133.250 C 262.594 127.430,261.402 126.998,257.798 127.704 M115.715 212.134 L 115.820 250.195 116.666 251.775 C 118.486 255.174,122.764 258.086,127.576 259.202 C 132.281 260.293,150.413 259.859,151.727 258.623 L 152.734 257.676 152.734 239.628 L 152.734 221.580 149.762 218.920 C 140.868 210.959,128.502 195.091,119.042 179.499 C 117.349 176.710,115.885 174.349,115.787 174.251 C 115.690 174.153,115.657 191.201,115.715 212.134 M286.754 178.437 C 277.597 193.725,267.760 206.577,257.349 216.856 L 252.344 221.799 252.344 239.588 L 252.344 257.378 253.286 258.474 L 254.228 259.570 264.573 259.686 C 278.259 259.839,282.017 258.937,286.542 254.412 C 289.627 251.327,289.470 253.719,289.357 211.631 L 289.258 174.258 286.754 178.437 " stroke="none" fill="#fbfbfb" fill-rule="evenodd"></path>
  <path d="M128.972 112.292 C 110.352 116.530,103.967 140.295,117.966 153.255 C 133.351 167.499,158.008 156.715,158.008 135.742 C 158.008 120.360,143.830 108.909,128.972 112.292 " stroke="none" fill="#7bf3f3" fill-rule="evenodd"></path>
  <path d="M188.867 30.312 C 72.896 39.011,6.368 167.366,66.192 266.992 C 126.816 367.948,273.966 367.948,334.589 266.992 C 396.543 163.821,322.974 31.558,202.930 30.293 C 196.270 30.223,189.941 30.232,188.867 30.312 M140.373 112.338 C 150.793 115.026,158.322 124.844,158.322 135.742 C 158.322 159.475,127.358 168.828,114.153 149.083 C 101.984 130.890,119.133 106.858,140.373 112.338 M262.852 127.723 C 264.673 128.246,281.772 137.738,282.661 138.721 C 284.141 140.355,283.667 141.891,279.241 149.815 C 276.964 153.891,274.465 158.506,273.689 160.069 C 269.858 167.780,260.884 181.499,254.378 189.588 C 218.238 234.523,175.429 229.954,142.610 177.659 C 140.051 173.582,139.857 173.047,140.935 173.047 C 148.068 173.047,162.016 164.348,167.246 156.637 C 168.933 154.149,168.552 153.909,172.270 159.796 C 182.260 175.612,192.677 184.929,200.964 185.461 C 213.734 186.280,228.232 171.276,245.739 139.121 C 251.102 129.270,256.262 125.833,262.852 127.723 M118.775 178.711 C 128.121 194.308,138.964 208.341,149.157 218.030 L 153.125 221.802 153.125 239.559 C 153.125 262.192,154.428 260.150,139.976 260.154 C 125.681 260.158,119.463 257.924,116.355 251.668 L 115.430 249.805 115.323 211.534 C 115.254 187.041,115.351 173.400,115.591 173.643 C 115.798 173.852,117.231 176.133,118.775 178.711 M289.262 250.239 C 287.146 257.519,280.000 260.303,263.990 260.085 C 250.754 259.905,251.953 261.973,251.953 239.319 L 251.953 222.035 257.743 216.193 C 268.394 205.447,276.974 194.220,286.357 178.753 L 289.648 173.327 289.748 210.776 C 289.834 243.111,289.768 248.499,289.262 250.239 " stroke="none" fill="#040404" fill-rule="evenodd"></path>
  <path d="M289.356 197.754 C 289.410 210.913,289.500 227.656,289.557 234.961 C 289.613 242.266,289.701 231.499,289.751 211.035 C 289.802 190.571,289.712 173.828,289.551 173.828 C 289.390 173.828,289.302 184.595,289.356 197.754 M201.074 185.823 C 201.558 185.916,202.349 185.916,202.832 185.823 C 203.315 185.729,202.920 185.653,201.953 185.653 C 200.986 185.653,200.591 185.729,201.074 185.823 M244.911 199.902 L 242.383 202.539 245.020 200.011 C 246.470 198.621,247.656 197.434,247.656 197.375 C 247.656 197.087,247.258 197.453,244.911 199.902 M147.070 216.406 C 148.563 217.910,149.872 219.141,149.979 219.141 C 150.086 219.141,148.953 217.910,147.461 216.406 C 145.969 214.902,144.660 213.672,144.552 213.672 C 144.445 213.672,145.578 214.902,147.070 216.406 M257.801 216.309 L 255.273 218.945 257.910 216.418 C 259.360 215.027,260.547 213.841,260.547 213.781 C 260.547 213.493,260.149 213.859,257.801 216.309 M201.465 220.198 C 201.948 220.291,202.739 220.291,203.223 220.198 C 203.706 220.104,203.311 220.028,202.344 220.028 C 201.377 220.028,200.981 220.104,201.465 220.198 M152.914 239.453 C 152.914 249.229,152.965 253.228,153.027 248.340 C 153.089 243.452,153.089 235.454,153.027 230.566 C 152.965 225.679,152.914 229.678,152.914 239.453 M252.133 239.258 C 252.133 248.926,252.184 252.825,252.246 247.923 C 252.308 243.020,252.308 235.110,252.246 230.344 C 252.184 225.579,252.133 229.590,252.133 239.258 M136.035 260.057 C 138.345 260.126,142.124 260.126,144.434 260.057 C 146.743 259.988,144.854 259.932,140.234 259.932 C 135.615 259.932,133.726 259.988,136.035 260.057 M260.645 260.057 C 262.954 260.126,266.733 260.126,269.043 260.057 C 271.353 259.988,269.463 259.932,264.844 259.932 C 260.225 259.932,258.335 259.988,260.645 260.057 " stroke="none" fill="#848484" fill-rule="evenodd"></path>
  <path d="M158.302 135.742 C 158.306 136.602,158.386 136.907,158.479 136.421 C 158.573 135.935,158.569 135.232,158.472 134.859 C 158.374 134.485,158.297 134.883,158.302 135.742 M116.992 152.734 C 117.831 153.594,118.606 154.297,118.713 154.297 C 118.821 154.297,118.222 153.594,117.383 152.734 C 116.544 151.875,115.769 151.172,115.662 151.172 C 115.554 151.172,116.153 151.875,116.992 152.734 M115.422 210.938 C 115.422 231.670,115.469 240.151,115.527 229.785 C 115.585 219.419,115.585 202.456,115.527 192.090 C 115.469 181.724,115.422 190.205,115.422 210.938 M184.570 176.172 C 185.409 177.031,186.184 177.734,186.291 177.734 C 186.399 177.734,185.800 177.031,184.961 176.172 C 184.122 175.313,183.347 174.609,183.240 174.609 C 183.132 174.609,183.731 175.313,184.570 176.172 M198.340 220.198 C 198.823 220.291,199.614 220.291,200.098 220.198 C 200.581 220.104,200.186 220.028,199.219 220.028 C 198.252 220.028,197.856 220.104,198.340 220.198 " stroke="none" fill="#5c5c5c" fill-rule="evenodd"></path>
</svg>
